<svg width="35" height="33" viewBox="0 0 35 33" fill="none" xmlns="http://www.w3.org/2000/svg">
<g clip-path="url(#clip0_369_576)">
<path d="M17.5343 0.0125551C22.2004 0.0125551 26.8666 0.0345913 31.5338 -0.000407421C33.0588 -0.0120736 34.542 1.2401 34.8532 2.79819C34.9326 3.14037 34.9791 3.49104 34.9921 3.84426C34.9998 9.40776 34.9998 14.9717 34.9921 20.536C34.9959 21.0503 34.9083 21.5603 34.7344 22.0362C34.5604 22.5121 34.3035 22.9444 33.9788 23.3078C33.654 23.6713 33.2679 23.9586 32.843 24.1531C32.418 24.3475 31.9628 24.4452 31.5038 24.4403C26.3251 24.4403 21.1472 24.4403 15.9701 24.4403C15.8719 24.4353 15.7739 24.4544 15.6829 24.4963C15.592 24.5382 15.5103 24.6018 15.4436 24.6827C13.3148 27.0834 11.1813 29.4797 9.04319 31.8717C8.67296 32.2865 8.16041 32.4265 7.72076 32.2126C7.22672 31.9715 7.00343 31.5282 7.00343 30.9332C7.00343 28.902 7.00343 26.8708 7.00921 24.8409C7.00921 24.5363 6.94789 24.4326 6.66211 24.4377C5.58265 24.4572 4.50318 24.4494 3.42255 24.4442C2.65392 24.439 1.90932 24.1435 1.30909 23.6056C0.708858 23.0677 0.288069 22.3187 0.114728 21.4797C0.0451654 21.1452 0.00869337 20.8031 0.00597125 20.4596C-0.000970667 14.9609 0.0117562 9.4622 -0.000970667 3.96222C-0.00775729 3.0691 0.255581 2.19972 0.746148 1.49569C1.23671 0.79167 1.9256 0.294491 2.70059 0.0851449C2.93628 0.0292919 3.17716 0.00578665 3.41792 0.0151475C8.12377 0.0116909 12.8292 0.0108267 17.5343 0.0125551ZM9.37062 27.7224C9.46896 27.6356 9.5164 27.6019 9.55574 27.5578C11.0841 25.8429 12.6194 24.1357 14.1328 22.4039C14.2934 22.2067 14.4904 22.0512 14.7103 21.9482C14.9301 21.8452 15.1674 21.7972 15.4055 21.8077C20.7369 21.8215 26.0675 21.8245 31.3973 21.8167C32.0406 21.8167 32.5115 21.4369 32.6446 20.7681C32.6874 20.5464 32.6318 20.3027 32.6318 20.0681C32.6318 14.7759 32.6318 9.48337 32.6318 4.19036C32.6318 4.05037 32.6318 3.90907 32.6249 3.76908C32.5798 3.25058 32.1945 2.7593 31.7652 2.6919C31.5465 2.65589 31.3257 2.63727 31.1046 2.63616C22.0431 2.63616 12.98 2.63616 3.91543 2.63616C3.82865 2.63616 3.74188 2.63616 3.65511 2.63616C2.7677 2.6906 2.37201 3.15466 2.37201 4.14758C2.37201 9.54775 2.37201 14.9488 2.37201 20.3507C2.37201 21.2723 2.85447 21.8167 3.67478 21.818C5.16844 21.818 6.66327 21.8375 8.15694 21.8103C8.9541 21.796 9.3764 22.4687 9.37293 23.1856C9.37293 24.557 9.37293 25.9297 9.37293 27.3012L9.37062 27.7224Z" fill="black"/>
<path d="M17.5133 13.1206C13.7832 13.1206 10.0526 13.1206 6.32175 13.1206C5.9573 13.1206 5.67962 12.9599 5.52343 12.6021C5.45103 12.4597 5.42066 12.2952 5.43666 12.1323C5.45266 11.9693 5.51421 11.8162 5.61252 11.6948C5.74831 11.5509 5.90896 11.4397 6.08457 11.3681C6.19767 11.3343 6.31556 11.3255 6.43166 11.3422C13.8364 11.3422 21.2411 11.3422 28.6458 11.3422C29.0311 11.3422 29.3608 11.4368 29.5332 11.8516C29.7854 12.457 29.4071 13.1051 28.8008 13.1219C28.4352 13.1323 28.0685 13.1219 27.7029 13.1219L17.5133 13.1206Z" fill="black"/>
<path d="M17.5168 6.12235H28.7072C29.1815 6.12235 29.4199 6.29475 29.5529 6.7264C29.5903 6.84276 29.6047 6.96685 29.595 7.09005C29.5852 7.21325 29.5517 7.3326 29.4966 7.4398C29.4416 7.547 29.3663 7.63948 29.2762 7.71081C29.186 7.78214 29.083 7.83061 28.9744 7.85284C28.8596 7.87199 28.7434 7.87936 28.6273 7.87487H6.39119C6.1112 7.87487 5.85204 7.84247 5.65304 7.59488C5.5485 7.47416 5.47838 7.32133 5.45159 7.15582C5.42481 6.99032 5.44257 6.81963 5.50263 6.66547C5.55314 6.4954 5.65279 6.34904 5.78584 6.24951C5.91889 6.14998 6.07775 6.10295 6.23731 6.11587C7.98205 6.11587 9.72679 6.11587 11.4715 6.11587L17.5168 6.12235Z" fill="black"/>
<path d="M17.5133 16.5713H28.6771C29.1468 16.5713 29.399 16.732 29.5344 17.1157C29.5821 17.2359 29.6046 17.3668 29.6001 17.4983C29.5955 17.6298 29.5641 17.7583 29.5082 17.874C29.4523 17.9898 29.3734 18.0896 29.2777 18.1657C29.1819 18.2419 29.0719 18.2925 28.9559 18.3134C28.8412 18.3342 28.725 18.3425 28.6088 18.3381C21.2149 18.3381 13.8206 18.335 6.42592 18.329C6.17189 18.3218 5.92422 18.2385 5.70858 18.0879C5.44363 17.9012 5.3719 17.4774 5.4876 17.1585C5.61255 16.815 5.82775 16.592 6.18179 16.5726C6.27782 16.5726 6.37501 16.5726 6.47104 16.5726L17.5133 16.5713Z" fill="black"/>
</g>
<defs>
<clipPath id="clip0_369_576">
<rect width="35" height="32.3077" fill="white"/>
</clipPath>
</defs>
</svg>
