<svg width="40" height="35" viewBox="0 0 40 35" fill="none" xmlns="http://www.w3.org/2000/svg">
<path d="M15.3067 2.44687C15.8345 3.21978 16.3201 3.85736 16.7371 4.52201C17.5409 5.84261 18.095 7.26369 18.3786 8.73243C18.8396 10.9234 20.138 12.7519 21.6863 14.4842C21.9396 14.7573 22.1712 15.0447 22.3795 15.3443C22.8827 16.1052 22.6874 16.5623 21.7725 16.9382C21.3437 17.0883 20.9411 17.2882 20.5761 17.5322C19.9234 18.0269 19.8425 19.0811 20.3474 19.681C20.5233 19.8991 20.4741 20.0615 20.2278 20.1788C19.6665 20.4449 19.0965 20.6961 18.5335 20.9577C18.3207 21.0449 18.1355 21.1743 17.9933 21.3351H20.0395C20.8031 21.3351 20.8559 21.4043 20.687 22.0268C20.6293 22.2313 20.6215 22.4437 20.6641 22.6509C20.84 23.4193 21.0512 24.1802 21.2412 24.9456C21.4611 25.8343 21.0758 26.1095 20.2753 26.5696C19.5117 27.0087 18.5845 27.0854 17.6713 27.126C16.9834 27.1575 16.2937 27.1651 15.6111 27.2357C14.7314 27.326 14.0276 27.7094 13.4171 28.2432C12.7626 28.8237 12.4248 29.5545 12.1151 30.2988C12.0096 30.553 12.0835 30.6522 12.3843 30.771C13.6656 31.2857 15.014 31.6683 16.4011 31.9108C18.5245 32.2916 20.7133 32.3243 22.851 32.0071C24.5426 31.7315 26.1914 31.2905 27.7651 30.6928C28.117 30.568 28.4213 30.374 28.7574 30.2251C29.2447 30.0086 29.9503 30.0748 30.2775 30.3755C30.4431 30.5367 30.545 30.7384 30.5687 30.952C30.5924 31.1655 30.5367 31.38 30.4095 31.565C30.3178 31.7045 30.1857 31.8215 30.0259 31.9048C28.1246 32.8843 26.0309 33.5604 23.8469 33.9002C23.0006 34.0311 22.135 34.0657 21.2869 34.1905C19.8794 34.398 18.4719 34.225 17.0907 34.0641C15.8592 33.9138 14.6452 33.601 13.447 33.2942C11.6876 32.8431 10.0883 32.0732 8.57344 31.1996C7.19171 30.3806 5.93668 29.4155 4.83822 28.3274C3.50923 27.0461 2.42394 25.5944 1.62202 24.0253C0.81093 22.4434 0.21449 20.7983 0.103647 19.054C0.0455868 18.0555 -0.0247896 17.0555 0.00863918 16.0586C0.067018 14.8365 0.296798 13.6249 0.693049 12.4496C1.44294 10.1695 2.73618 8.04642 4.49161 6.21369C5.48824 5.16788 6.63299 4.23191 7.89959 3.4273C9.6463 2.29269 11.6011 1.4136 13.6845 0.825855C15.2788 0.365154 16.9404 0.0964153 18.6214 0.0273784C20.2225 -0.0267556 21.8165 -0.019237 23.4 0.224366C25.1718 0.475039 26.8909 0.946726 28.5023 1.62433C28.9949 1.83786 29.4928 2.04688 29.9696 2.28447C30.5942 2.58521 30.7437 3.14159 30.3883 3.70097C30.1385 4.09495 29.3433 4.21825 28.7838 3.9942C27.7176 3.56714 26.6725 3.09197 25.557 2.77468C23.2698 2.12206 20.928 1.80328 18.5194 2.04989C17.462 2.15665 16.4169 2.30853 15.3067 2.44687Z" fill="black"/>
<path d="M37.7339 17.3833C37.6055 15.4646 37.3433 13.845 36.7205 12.2706C36.3275 11.2007 35.7696 10.1802 35.0614 9.23613C34.2925 8.25721 33.3829 7.35798 32.512 6.43921C32.0369 5.93696 32.0317 5.36555 32.556 4.93548C32.9571 4.60466 33.6978 4.63474 34.1729 5.04074C35.423 6.07223 36.4814 7.26084 37.3116 8.56547C37.806 9.36846 38.3356 10.1654 38.7192 11.009C39.0918 11.8463 39.371 12.7118 39.5531 13.5939C39.7854 14.7097 39.9965 15.8495 40 16.9743C39.9706 18.1581 39.8323 19.3382 39.5866 20.5035C39.3015 22.0644 38.6294 23.5215 37.7937 24.932C37.0511 26.1691 36.1411 27.3273 35.0825 28.383C34.7835 28.6709 34.4657 28.944 34.1306 29.2011C33.6433 29.5875 32.9677 29.6161 32.5683 29.2823C32.0686 28.8657 32.0105 28.2793 32.4434 27.8357C33.0204 27.2432 33.6644 26.6913 34.1817 26.0613C34.815 25.2914 35.3904 24.4878 35.9041 23.6553C36.2709 23.034 36.5718 22.3858 36.8032 21.7185C37.0356 21.0636 37.2184 20.3966 37.3503 19.7216C37.5245 18.8585 37.6371 17.9908 37.7339 17.3833Z" fill="black"/>
<path d="M35.1019 17.0707C35.2673 18.5835 34.8256 19.9895 34.3101 21.3669C33.8271 22.6369 33.0895 23.8254 32.1302 24.8796C31.654 25.3989 31.136 25.8893 30.5802 26.3472C30.4222 26.4906 30.2098 26.5816 29.9808 26.6039C29.7518 26.6262 29.5209 26.5784 29.3292 26.469C28.8489 26.1998 28.5569 25.7532 28.7346 25.3593C28.8936 25.042 29.1237 24.7544 29.4119 24.5127C30.2609 23.7734 30.9527 22.9135 31.4564 21.9714C31.867 21.2018 32.199 20.4034 32.4487 19.585C32.8168 18.3339 32.8963 17.0335 32.6827 15.7565C32.5556 14.8793 32.3069 14.0182 31.942 13.1911C31.3211 11.7923 30.368 10.5184 29.1428 9.44987C28.4935 8.88748 28.5358 8.26644 29.2624 7.79578C29.6143 7.57022 30.0119 7.49503 30.3497 7.74164C30.8666 8.12555 31.3489 8.54226 31.7924 8.98823C33.1355 10.3759 34.1033 12 34.6268 13.7445C34.9699 14.8347 35.2673 15.952 35.1019 17.0707Z" fill="black"/>
<path d="M30.3655 17.1125C30.2107 18.3651 29.9907 19.5816 29.3573 20.738C28.8576 21.6518 28.1926 22.4927 27.3868 23.2297C26.8871 23.6883 26.1552 23.7485 25.6274 23.3485C25.14 22.971 25.1541 22.35 25.6555 21.8944C27.5627 20.1651 28.256 18.108 27.7844 15.7892C27.51 14.4359 26.7165 13.272 25.6063 12.269C25.4961 12.1745 25.4096 12.0619 25.3519 11.9379C25.2943 11.8139 25.2668 11.6812 25.2711 11.5479C25.2754 11.4145 25.3114 11.2833 25.3768 11.1622C25.4423 11.0411 25.536 10.9327 25.652 10.8435C25.8858 10.669 26.1899 10.5794 26.4998 10.5938C26.8097 10.6081 27.1008 10.7252 27.3111 10.9202C28.1535 11.6647 28.8419 12.526 29.3468 13.4675C29.989 14.6359 30.2107 15.8644 30.3655 17.1125Z" fill="black"/>
</svg>
